HIERARCHY
ROOT Hips
{
  OFFSET 0 0 0
  CHANNELS 6 Xposition Yposition Zposition Zrotation Xrotation Yrotation
  JOINT Spine
  {
    OFFSET 0 10 0
    CHANNELS 3 Zrotation Xrotation Yrotation
    JOINT Neck
    {
      OFFSET 0 30 0
      CHANNELS 3 Zrotation Xrotation Yrotation
      JOINT Head
      {
        OFFSET 0 8 0
        CHANNELS 3 Zrotation Xrotation Yrotation
        End Site
        {
          OFFSET 0 10 0
        }
      }
    }
    JOINT LeftArm
    {
      OFFSET 15 30 0
      CHANNELS 3 Zrotation Xrotation Yrotation
      JOINT LeftForeArm
      {
        OFFSET 25 0 0
        CHANNELS 3 Zrotation Xrotation Yrotation
        JOINT LeftHand
        {
          OFFSET 25 0 0
          CHANNELS 3 Zrotation Xrotation Yrotation
          End Site
          {
            OFFSET 10 0 0
          }
        }
      }
    }
    JOINT RightArm
    {
      OFFSET -15 30 0
      CHANNELS 3 Zrotation Xrotation Yrotation
      JOINT RightForeArm
      {
        OFFSET -25 0 0
        CHANNELS 3 Zrotation Xrotation Yrotation
        JOINT RightHand
        {
          OFFSET -25 0 0
          CHANNELS 3 Zrotation Xrotation Yrotation
          End Site
          {
            OFFSET -10 0 0
          }
        }
      }
    }
  }
  JOINT LeftUpLeg
  {
    OFFSET 10 -10 0
    CHANNELS 3 Zrotation Xrotation Yrotation
    JOINT LeftLeg
    {
      OFFSET 0 -35 0
      CHANNELS 3 Zrotation Xrotation Yrotation
      JOINT LeftToe
      {
        OFFSET 0 -40 0
        CHANNELS 3 Zrotation Xrotation Yrotation
        JOINT LeftToeEnd
        {
          OFFSET 0 0 0
          CHANNELS 3 Zrotation Xrotation Yrotation
          End Site
          {
            OFFSET 0 0 15
          }
        }
      }
    }
  }
  JOINT RightUpLeg
  {
    OFFSET -10 -10 0
    CHANNELS 3 Zrotation Xrotation Yrotation
    JOINT RightLeg
    {
      OFFSET 0 -35 0
      CHANNELS 3 Zrotation Xrotation Yrotation
      JOINT RightToe
      {
        OFFSET 0 -40 0
        CHANNELS 3 Zrotation Xrotation Yrotation
        JOINT RightToeEnd
        {
          OFFSET 0 0 0
          CHANNELS 3 Zrotation Xrotation Yrotation
          End Site
          {
            OFFSET 0 0 15
          }
        }
      }
    }
  }
}
MOTION
Frames:	8
Frame Time:	0.0333333
41.9858 85.1594 -152.807 0.435081 8.05663 5.64691 4.55331 -1.05156 -5.22407 -2.7436 -13.1963 -2.49816 4.4488 14.0461 -0.235932 -54.0627 42.1899 -37.1201 23.5826 -10.8832 -34.9029 -1.96638 -29.6277 -1.24888 76.021 -34.6729 -19.8958 -1.68615 -1.43657 6.11465 3.20068 51.3478 -0.882989 3.0624 7.23946 0.0628073 1.56269 41.7314 -0.856547 -5.14663 20.3643 6.66965 -1.59028e-015 -3.18055e-015 3.97569e-016 0.214842 -38.5961 -2.15105 0.546653 32.1751 -4.24542 -2.87567 -1.82164 6.11639 1.89576e-022 -7.58303e-022 -0 
41.7426 86.7851 -146.807 0.588572 7.78617 3.73128 4.33371 -1.2918 -2.20676 -2.80629 -13.0089 -1.95129 4.38829 15.4568 -1.19522 -61.7438 44.3671 -30.6871 19.7683 -7.73325 -29.305 -2.30488 -28.3993 -1.20389 82.5163 -25.7393 -11.5744 -1.77492 -1.43747 6.844 3.01208 45.7715 -0.884923 2.96935 -1.60539 3.02909 1.69319 52.0204 -1.48599 -1.40178 12.0077 0.985805 -7.95139e-016 0 -1.19271e-015 1.66831 -32.8912 -1.70186 -0.0491777 29.9991 -3.88716 -3.04394 -4.38453 8.42616 -2.48481e-017 0 -0 
41.5448 88.0613 -141.006 0.518543 7.57192 2.3817 4.31568 -1.79943 0.245595 -3.3133 -12.0727 -1.28769 5.05325 15.9493 -1.62913 -71.9135 45.9723 -19.8223 16.8022 -5.72749 -25.5661 -2.8117 -26.448 -1.56327 86.8783 -7.41769 -4.73517 -2.30326 -1.85176 9.21779 2.77068 31.11 -0.0246107 4.02583 -10.4838 6.01217 1.36087 58.4844 -1.08954 0.300223 5.23669 -2.36202 -7.95139e-016 -3.18055e-015 -0 3.01307 -26.6251 -0.789548 -0.584826 26.8814 -3.66828 -3.28228 -6.70793 9.78853 2.48481e-017 3.97569e-016 -1.59028e-015 
41.461 89.0174 -135.251 0.185353 7.18766 1.20638 4.77855 -2.33319 2.37354 -3.57845 -11.4789 -0.749168 5.074 17.515 -2.15653 -82.3982 43.0474 -9.22561 12.075 -3.41802 -19.3634 -2.94234 -20.4344 -1.33218 86.487 6.03403 3.57672 -2.39307 -2.17783 9.97736 3.06035 20.1489 0.121976 5.11006 -18.5257 8.02244 0.498735 61.4448 -0.137978 1.56421 -4.08083 -4.81493 -3.97569e-016 -3.18055e-015 -3.97569e-016 4.16546 -20.3344 -0.239756 -1.01632 23.7644 -3.55955 -3.31508 -8.38216 11.0032 -9.93923e-017 -1.19271e-015 -0 
41.3655 89.3555 -129.591 -0.433928 6.59519 -0.398874 5.60083 -2.17077 4.41902 -3.99122 -11.2958 0.0271022 5.22355 18.5657 -2.08771 -89.8053 36.4569 -0.465101 7.39028 -1.8592 -13.4804 -3.13443 -11.1712 -0.898329 81.76 25.1805 7.93613 -6.22004 -3.29812 16.1839 3.0194 5.8807 1.26256 6.55355 -25.0615 9.78244 -0.270486 60.9456 0.93105 1.67829 -8.73697 -3.89092 -0 -6.36111e-015 -0 5.34789 -15.0663 0.230198 -1.42091 22.8292 -3.63242 -1.52029 -11.1929 11.4305 -9.93923e-017 3.97569e-016 3.18055e-015 
41.4105 89.1571 -123.761 -0.946318 6.61178 -1.74214 6.50042 -2.721 6.61662 -4.49188 -10.6401 0.729963 5.04891 18.8788 -2.33719 -95.1064 26.844 8.24062 4.39832 -1.09734 -9.86222 -3.45296 1.39225 -0.462361 74.2247 32.3018 16.7972 -7.90327 -4.05452 18.4133 3.12198 -0.143913 1.97673 7.62548 -31.316 10.6689 -1.08778 57.1024 1.86566 1.66293 -9.75561 -2.50106 -3.97569e-016 0 -1.59028e-015 5.75713 -10.8572 -1.12124 -1.65701 22.3751 -3.70309 -0.809396 -13.7255 14.5683 -5.96354e-016 0 -1.59028e-015 
41.4869 89.1265 -117.81 -1.49364 6.83341 -3.78335 7.59793 -3.22145 9.33628 -5.02545 -10.1041 1.65779 5.22627 19.074 -2.49587 -97.8756 18.3698 16.7778 3.19283 -0.859155 -8.59195 -3.84772 8.84145 -0.159726 64.652 37.8316 25.6685 -11.0809 -5.01603 22.1188 3.21658 -8.0776 2.40269 9.28773 -35.7803 12.4838 -1.78896 50.1055 2.35045 1.82455 -10.0001 -1.30835 -3.97569e-016 1.59028e-015 7.95139e-016 5.83123 -8.16886 -1.82392 -1.8025 24.6359 -3.56836 -0.135958 -16.8368 16.9159 -4.96962e-016 0 -0 
41.4798 88.8409 -111.859 -1.92799 7.09218 -6.48558 8.34763 -3.51461 11.984 -5.04793 -10.047 2.62576 4.94905 19.4511 -2.4233 -99.8709 13.8581 25.6231 3.168 -0.740485 -9.01312 -4.03022 8.5585 -0.636404 54.0911 40.5483 35.3743 -13.3503 -6.4853 25.0038 3.81973 -15.6825 3.19454 11.5787 -38.813 13.7577 -2.44558 41.2452 2.46902 1.66711 -7.71524 0.209491 -2.48481e-017 9.93923e-017 -7.95139e-016 5.54046 -5.92115 -2.1558 -2.1876 26.7706 -2.99852 -0.160159 -16.477 22.004 7.95139e-016 0 -1.59028e-015 
